<svg id="Warstwa_1" data-name="Warstwa 1" xmlns="http://www.w3.org/2000/svg" viewBox="0 0 572.6 708.66"><defs><style>.cls-1{fill:#f69f18;}.cls-2{fill:#010101;}</style></defs><title>RGBPeter_logo_pomarancz_pionowe</title><path class="cls-1" d="M269.51,142.88h34.05v15.79H269.51Zm-17.73,24.7h69.51v19.06H251.78ZM62.18,136.25V69.3h0l0-11.17,120.37,69.33L208,142.09v.37h0V273.8h0v6.75l46.16,26.65L254,329.11,183,288.16h-.47v-.28l-.07,0,.07-17.28V149.45l-95-54.7v36.38l73,42.14v22L62.18,138.46l0-2.2ZM254.11,424.53v15.14L135.17,371V369.4h0v-145l-73-42.13,0-22L160.6,217l-.11.29h.08V363.65l68.57,39.59V357.53l-46.58-26.89v-22l71.56,40.53,0,75.37Zm45.13,17.34H273.83V217.16H242l-10.73-19H339.14l-10.61,19H299.24ZM510.39,184.43l-73,42.12V371.61h0v1.59L318.49,441.87V426.73h0l0-75.36L390,310.84v22l-46.58,26.9v45.71L412,365.86V219.52h.08l-.12-.28,98.43-56.83Zm0-112.93v66.95h0l0,2.21L412,197.47v-22l73-42.14V97l-95,54.69V272.78l.07,17.27-.07,0v.27h-.47l-70.93,40.95-.16-21.91,46.16-26.65V276h0V144.67h0v-.38l25.4-14.63L510.42,60.34l0,11.17Z"/><rect class="cls-1" x="251.78" y="167.58" width="69.51" height="19.06"/><polygon class="cls-1" points="339.14 198.11 231.22 198.11 241.95 217.16 273.83 217.16 273.83 441.87 299.24 441.87 299.24 217.16 328.53 217.16 339.14 198.11"/><rect class="cls-1" x="269.51" y="142.88" width="34.06" height="15.79"/><polygon class="cls-1" points="160.57 195.27 160.57 173.27 87.58 131.13 87.58 94.75 182.55 149.44 182.55 270.57 182.48 287.85 182.55 287.88 182.55 288.16 183.02 288.16 253.95 329.11 254.11 307.2 207.95 280.55 207.95 273.8 207.95 273.8 207.95 142.46 207.95 142.46 207.95 142.09 182.55 127.45 62.18 58.13 62.2 69.3 62.18 69.3 62.18 136.25 62.21 136.26 62.18 138.46 160.57 195.27"/><polygon class="cls-1" points="182.56 308.63 182.56 330.64 229.14 357.53 229.14 403.25 160.57 363.65 160.57 217.32 160.49 217.32 160.6 217.03 62.18 160.2 62.21 182.22 135.17 224.35 135.17 369.4 135.17 369.4 135.17 370.99 254.11 439.67 254.11 424.53 254.15 424.53 254.12 349.16 182.56 308.63"/><polygon class="cls-1" points="390.05 129.66 364.65 144.29 364.65 144.67 364.64 144.67 364.64 276 364.65 276 364.65 282.75 318.49 309.4 318.65 331.31 389.58 290.36 390.05 290.36 390.05 290.09 390.12 290.05 390.05 272.78 390.05 151.65 485.02 96.96 485.02 133.33 412.03 175.47 412.03 197.47 510.42 140.67 510.39 138.46 510.42 138.45 510.42 71.5 510.39 71.51 510.42 60.34 390.05 129.66"/><polygon class="cls-1" points="412.11 219.52 412.03 219.52 412.03 365.86 343.46 405.45 343.46 359.74 390.04 332.84 390.04 310.84 318.48 351.37 318.45 426.73 318.49 426.73 318.49 441.87 437.43 373.2 437.43 371.61 437.43 371.61 437.43 226.55 510.39 184.43 510.42 162.41 412 219.24 412.11 219.52"/><path class="cls-2" d="M144.94,467.22h15.64c6.8,0,13.61,1.73,18.82,6.66s8.69,13,8.69,25.19-3.48,20.12-8.69,25.05-12,7-18.82,7v42.56H144.94Zm15.64,47.92c4.78,0,7.82-.87,9.55-3.33s2.18-6.23,2.18-12.16-.44-10.14-2.18-12.74-4.77-3.77-9.55-3.77Z"/><path class="cls-2" d="M210.38,467.22h35.76v16.07H226v27.94H240.5v17.08H226v29.25h20.12v16.07H210.38Z"/><path class="cls-2" d="M263.81,483.29V467.22H309v16.07H294.21v90.34H278.58V483.29Z"/><path class="cls-2" d="M329.54,467.22H365.3v16.07H345.18v27.94h14.47v17.08H345.18v29.25H365.3v16.07H329.54Z"/><path class="cls-2" d="M416.41,573.63l-8.11-44.88h-4.2v44.88H388.46V467.22H404.1c18.68,0,26.64,10.57,26.64,30.69,0,10.57-2.75,20.13-8.69,24.18l10,51.54ZM404.1,514.27a10.83,10.83,0,0,0,7.38-2.32c2.32-2,4.2-5.93,4.2-13.46s-1.88-11.58-4.2-13.61-5.21-2.17-7.38-2.17Z"/><path class="cls-2" d="M150,613.49a16.58,16.58,0,0,0-.54-4.89c-.48-1.35-1.22-2.3-2.38-2.3-1.9.06-2.51,2-2.51,5a11.24,11.24,0,0,0,1.84,5.36c1.08,1.9,2.51,3.86,3.93,6a75,75,0,0,1,4.68,7.6,17.06,17.06,0,0,1,2.17,7.8c0,3.32-.54,6.44-2.1,8.75s-4.07,3.8-8.07,3.8c-4.69,0-7.33-1.77-8.82-4.48s-1.84-6.31-1.84-10l7.2-.68a18.63,18.63,0,0,0,.61,5.77c.47,1.63,1.29,2.71,2.85,2.71,2.17,0,3-2.31,3-5.49a12.36,12.36,0,0,0-1.9-5.5c-.61-1-1.22-2-1.9-3-1.42-2-3-4.35-4.61-6.86a28.44,28.44,0,0,1-3.6-7.73,13.57,13.57,0,0,1-.61-4,13.92,13.92,0,0,1,2.17-7.87,8.91,8.91,0,0,1,7.4-3.8c4.41-.07,7,1.76,8.41,4.41a19.51,19.51,0,0,1,1.83,8.82Z"/><path class="cls-2" d="M165.88,642.12l11.47-34.74h-9.84v-7.26h17.78v7.26l-11.67,35.35h11.67V650H165.88Z"/><path class="cls-2" d="M214.53,632.89v6.85a13.55,13.55,0,0,1-1.23,5.43,9.43,9.43,0,0,1-2.91,3.66,8.69,8.69,0,0,1-5.63,1.7,8.88,8.88,0,0,1-5.7-1.7,9.17,9.17,0,0,1-2.85-3.66,13.55,13.55,0,0,1-1.22-5.43V610.37a13.48,13.48,0,0,1,1.22-5.36,8.61,8.61,0,0,1,8.55-5.43,9.11,9.11,0,0,1,5.63,1.7A9.48,9.48,0,0,1,213.3,605a13.49,13.49,0,0,1,1.23,5.36v6.85h-6.86v-6.85a4.28,4.28,0,0,0-1.08-3.12,2.46,2.46,0,0,0-3.94,1.28,7.72,7.72,0,0,0-.34,1.84v29.37a4.66,4.66,0,0,0,1.16,3.12,1.93,1.93,0,0,0,1.42.54,2.36,2.36,0,0,0,2.51-1.83,4.59,4.59,0,0,0,.27-1.83v-6.85Z"/><path class="cls-2" d="M223.68,642.12l11.47-34.74h-9.84v-7.26h17.78v7.26l-11.67,35.35h11.67V650H223.68Z"/><path class="cls-2" d="M261.88,616.06l.2.48h.14l.2-.48,3.66-15.94h7.19l-7.46,28.63V650h-7.32V628.75L251,600.12h7.19Z"/><path class="cls-2" d="M302.31,632.89v6.85a13.55,13.55,0,0,1-1.22,5.43,9.36,9.36,0,0,1-2.92,3.66,8.67,8.67,0,0,1-5.63,1.7,8.9,8.9,0,0,1-5.7-1.7,9.26,9.26,0,0,1-2.85-3.66,13.72,13.72,0,0,1-1.22-5.43V610.37A13.66,13.66,0,0,1,284,605a8.61,8.61,0,0,1,8.55-5.43,9.09,9.09,0,0,1,5.63,1.7,9.42,9.42,0,0,1,2.92,3.73,13.48,13.48,0,0,1,1.22,5.36v6.85h-6.85v-6.85a4.25,4.25,0,0,0-1.09-3.12,2.46,2.46,0,0,0-3.93,1.28,7.25,7.25,0,0,0-.34,1.84v29.37a4.66,4.66,0,0,0,1.15,3.12,2,2,0,0,0,1.43.54,2.36,2.36,0,0,0,2.51-1.83,4.78,4.78,0,0,0,.27-1.83v-6.85Z"/><path class="cls-2" d="M313.5,600.12h7.33V650H313.5Z"/><path class="cls-2" d="M340.77,624l-.61-2.3h-.4V650H333V600.12h6.51l7.13,26,.61,2.31h.4V600.12h6.72V650H347.9Z"/><path class="cls-2" d="M378.76,613.49a16.25,16.25,0,0,0-.54-4.89c-.47-1.35-1.22-2.3-2.37-2.3-1.9.06-2.51,2-2.51,5a11.22,11.22,0,0,0,1.83,5.36c1.08,1.9,2.51,3.86,3.93,6a73.22,73.22,0,0,1,4.68,7.6A17.07,17.07,0,0,1,386,638c0,3.32-.55,6.44-2.11,8.75s-4.07,3.8-8.07,3.8c-4.68,0-7.33-1.77-8.82-4.48s-1.83-6.31-1.83-10l7.19-.68a18.94,18.94,0,0,0,.61,5.77c.47,1.63,1.29,2.71,2.85,2.71,2.17,0,3-2.31,3-5.49a12.36,12.36,0,0,0-1.9-5.5c-.61-1-1.22-2-1.89-3-1.43-2-3-4.35-4.62-6.86a28.1,28.1,0,0,1-3.59-7.73,13.25,13.25,0,0,1-.61-4,13.92,13.92,0,0,1,2.17-7.87,8.89,8.89,0,0,1,7.39-3.8c4.41-.07,7,1.76,8.41,4.41a19.39,19.39,0,0,1,1.84,8.82Z"/><path class="cls-2" d="M404,600.12v17.44h.27l.34-.82,6.11-16.62h7.12l-6.72,16.42,7.6,33.44H411.6l-5.09-21.7-.2-1h-.21l-.4,1-1.7,4.07V650h-7.33V600.12Z"/><path class="cls-2" d="M428.9,600.12h7.32V650H428.9Z"/></svg>